<svg xmlns="http://www.w3.org/2000/svg" width="107" height="28" viewBox="0 0 107 28">
    <g fill="none" fill-rule="evenodd">
        <text fill="#000" font-family="Helvetica" font-size="22">
            <tspan x="41" y="24">México</tspan>
        </text>
        <path fill="#FF1AC2" d="M13.773 10.182l3.09 4.382c0 1.807.156 3.59-.033 5.333-.4 3.685-2.3 6.379-5.835 7.62-2.869 1.007-5.544.41-7.903-1.528C1.46 24.648.512 22.89.08 20.832c-.047-.223-.05-.454-.079-.735l3.227-2.288v1.075c-.007 1.765.647 3.231 1.98 4.375.747.64 1.61 1.009 2.595 1.13 3.342.41 5.734-2.466 5.755-5.232.021-2.836.07-5.672.108-8.508v-.439l.108-.028zM13.265 0c.102.195.814 1.198.942 1.376 2.938 4.082 5.881 8.161 8.825 12.24.265.367.537.729.862 1.168.72-.813 1.257-1.685 1.865-2.502.605-.813 1.19-1.64 1.786-2.465h4.206l-5.722 7.943L33 27.434h-4.2l-4.807-6.81L22.87 22.1h-1.337l-3.788 5.235H14.91l6.986-9.698L13.44 5.62 13.265.792c-.009-.359-.014-.211 0-.792zM3.103 15.273v1.494L0 18.95v-1.413l3.103-2.263zm0-5.657v3.639L0 15.555v-1.434l3.103-4.505z"/>
    </g>
</svg>
